HIERARCHY
ROOT root
{
	OFFSET 0.000000 0.000000 0.000000
	CHANNELS 6 Xposition Yposition Zposition Zrotation Yrotation Xrotation
	JOINT lhip
	{
		OFFSET 0.058581 -0.082280 -0.017664
		CHANNELS 3 Zrotation Yrotation Xrotation
		JOINT lknee
		{
			OFFSET 0.043451 -0.386469 0.008037
			CHANNELS 3 Zrotation Yrotation Xrotation
			JOINT lankle
			{
				OFFSET -0.014790 -0.426874 -0.037428
				CHANNELS 3 Zrotation Yrotation Xrotation
				JOINT ltoe
				{
					OFFSET 0.041054 -0.060286 0.122042
					CHANNELS 3 Zrotation Yrotation Xrotation
					End Site
					{
						OFFSET 0.000000 0.000000 0.000000
					}
				}
			}
		}
	}
	JOINT rhip
	{
		OFFSET -0.060310 -0.090513 -0.013543
		CHANNELS 3 Zrotation Yrotation Xrotation
		JOINT rknee
		{
			OFFSET -0.043257 -0.383688 -0.004843
			CHANNELS 3 Zrotation Yrotation Xrotation
			JOINT rankle
			{
				OFFSET 0.019056 -0.420046 -0.034562
				CHANNELS 3 Zrotation Yrotation Xrotation
				JOINT rtoe
				{
					OFFSET -0.034840 -0.062106 0.130323
					CHANNELS 3 Zrotation Yrotation Xrotation
					End Site
					{
						OFFSET 0.000000 0.000000 0.000000
					}
				}
			}
		}
	}
	JOINT lowerback
	{
		OFFSET 0.004439 0.124404 -0.038385
		CHANNELS 3 Zrotation Yrotation Xrotation
		JOINT upperback
		{
			OFFSET 0.004488 0.137956 0.026820
			CHANNELS 3 Zrotation Yrotation Xrotation
			JOINT chest
			{
				OFFSET -0.002265 0.056032 0.002855
				CHANNELS 3 Zrotation Yrotation Xrotation
				JOINT lowerneck
				{
					OFFSET -0.013390 0.211636 -0.033468
					CHANNELS 3 Zrotation Yrotation Xrotation
					JOINT upperneck
					{
						OFFSET 0.010113 0.088937 0.050410
						CHANNELS 3 Zrotation Yrotation Xrotation
						End Site
						{
							OFFSET 0.000000 0.000000 0.000000
						}
					}
				}
				JOINT lclavicle
				{
					OFFSET 0.071702 0.114000 -0.018898
					CHANNELS 3 Zrotation Yrotation Xrotation
					JOINT lshoulder
					{
						OFFSET 0.122921 0.045205 -0.019046
						CHANNELS 3 Zrotation Yrotation Xrotation
						JOINT lelbow
						{
							OFFSET 0.255332 -0.015649 -0.022946
							CHANNELS 3 Zrotation Yrotation Xrotation
							JOINT lwrist
							{
								OFFSET 0.265709 0.012698 -0.007375
								CHANNELS 3 Zrotation Yrotation Xrotation
								End Site
								{
									OFFSET 0.000000 0.000000 0.000000
								}
							}
						}
					}
				}
				JOINT rclavicle
				{
					OFFSET -0.082954 0.112472 -0.023707
					CHANNELS 3 Zrotation Yrotation Xrotation
					JOINT rshoulder
					{
						OFFSET -0.113228 0.046853 -0.008472
						CHANNELS 3 Zrotation Yrotation Xrotation
						JOINT relbow
						{
							OFFSET -0.260127 -0.014369 -0.031269
							CHANNELS 3 Zrotation Yrotation Xrotation
							JOINT rwrist
							{
								OFFSET -0.269108 0.006794 -0.006027
								CHANNELS 3 Zrotation Yrotation Xrotation
								End Site
								{
									OFFSET 0.000000 0.000000 0.000000
								}
							}
						}
					}
				}
			}
		}
	}
}
MOTION
Frames: 16
Frame Time: 0.033333
-1.053318 0.332787 0.941210 103.954038 1.638055 85.289419 -1.846989 3.479419 0.927550 -5.465420 -9.869770 33.831082 6.013683 19.621747 -32.259431 0.000000 -0.000000 0.000000 -5.081330 0.549446 -38.826489 -2.406115 -8.668041 49.758369 9.286906 -12.335674 -2.578230 0.000000 -0.000000 0.000000 -1.417542 -7.769381 35.391603 2.537110 -2.972632 -10.565371 2.204706 -5.078810 4.223054 1.216547 1.777955 -11.495423 2.535050 -3.429138 9.721152 -23.520962 -8.513045 -3.173624 -41.807326 -22.576894 7.143532 15.065136 -55.286248 3.038075 10.342072 -9.367682 11.144931 25.169897 1.943405 -4.804076 53.811628 -8.932348 20.404265 -8.390751 46.544828 11.131113 -18.262873 4.305190 13.456309 
-1.019551 0.329858 0.943768 105.415954 1.370121 86.702552 -0.861487 4.790192 4.105172 -5.164274 -12.738533 28.797620 5.599372 19.720378 -31.987802 0.000000 -0.000000 0.000000 -5.533536 -0.743987 -38.570992 -2.114465 -9.373281 52.056017 9.693786 -11.277743 -4.612191 0.000000 -0.000000 0.000000 -1.373822 -8.671248 33.297666 2.720666 -3.362693 -10.483154 2.167083 -5.210229 3.973717 1.304240 1.677364 -11.196284 2.522877 -3.536151 9.051346 -23.170102 -7.539386 -3.284269 -39.321138 -21.963507 5.862530 15.780660 -60.327688 2.441281 10.757159 -9.129398 10.973023 24.770953 0.929476 -5.132814 52.041558 -9.890132 19.878456 -5.995377 51.083758 14.047694 -18.048947 4.946737 14.158791 
-0.982458 0.326184 0.954813 106.139563 1.321538 88.415073 0.191674 5.110259 6.643154 -4.443338 -14.488839 24.225520 4.180569 19.576777 -28.697111 0.000000 -0.000000 0.000000 -5.217260 -1.701010 -37.507197 -1.565159 -10.099869 52.068100 9.659855 -10.550247 -5.518708 0.000000 -0.000000 0.000000 -0.889812 -9.150473 30.572758 2.938532 -3.680336 -10.119994 2.051386 -5.230479 3.598253 1.312061 1.387769 -10.773398 2.620948 -3.608741 8.160488 -22.802027 -6.116515 -3.522635 -37.010378 -20.094359 4.865951 16.986259 -63.911903 1.258676 11.624942 -9.701719 10.753086 24.196070 -0.395934 -5.647400 50.038915 -11.313256 19.238283 -3.096926 55.527130 17.581488 -18.172663 5.806253 14.510937 
-0.942436 0.321443 0.974127 105.458520 1.288077 90.086932 1.197042 5.210128 8.223317 -4.049847 -14.940836 21.292724 2.147746 19.118153 -21.887115 0.000000 -0.000000 0.000000 -4.177695 -2.053559 -35.992296 -1.043151 -10.823911 50.382909 9.340878 -10.348993 -4.380000 0.000000 -0.000000 0.000000 -0.466059 -9.000287 27.531455 2.964703 -3.391281 -9.340361 1.872027 -4.943661 3.221725 1.267863 1.008496 -10.270673 2.944388 -3.646414 6.995734 -22.442349 -4.133096 -3.859205 -35.295868 -17.617737 4.438861 17.370532 -65.690737 -0.221335 12.785787 -9.458493 9.884819 23.556364 -1.863280 -5.877304 48.505500 -12.409653 18.814029 -0.786300 58.765244 20.000830 -18.697444 5.749701 14.357623 
-0.898812 0.315568 0.999091 103.584743 1.161471 91.216746 1.581504 5.405395 8.397799 -3.609496 -13.257368 21.239145 -0.016019 18.950055 -11.665390 0.000000 -0.000000 0.000000 -2.793472 -1.714878 -32.819929 -0.759565 -11.228865 46.725802 8.698999 -9.737769 -2.135580 0.000000 -0.000000 0.000000 -0.347250 -8.245844 24.667727 2.876344 -3.017064 -8.119186 1.685134 -4.224188 2.693982 1.093321 0.624754 -9.329916 3.265856 -3.852219 5.891743 -22.101932 -2.212330 -3.986373 -34.037003 -13.937518 4.495602 16.904909 -65.567484 -0.834568 13.688582 -9.133351 10.583131 22.862388 -2.698178 -5.540852 47.663756 -13.209745 18.275811 1.064195 60.319357 21.994387 -18.881411 5.534024 14.034070 
-0.853090 0.309098 1.024901 101.572335 0.835176 91.836178 0.907839 4.953003 4.987631 -3.390883 -9.198701 27.055067 -0.726407 19.098226 0.855648 0.000000 -0.000000 0.000000 -0.949589 -2.095053 -27.960439 -0.284147 -9.243013 41.189927 7.357287 -8.782586 0.354068 0.000000 -0.000000 0.000000 -0.135940 -6.684399 22.300956 2.777713 -3.286319 -7.220608 1.338728 -3.529923 2.258047 0.638224 -0.367461 -8.334065 3.662427 -3.652292 5.740907 -22.014602 -0.257135 -4.008332 -33.051205 -9.875290 4.281951 14.044434 -63.647282 1.657385 12.951826 -9.088960 13.322500 22.131716 -3.205363 -5.109731 47.281952 -13.749714 17.705969 3.212320 60.206702 24.527337 -18.353560 5.671520 14.269267 
-0.807852 0.302221 1.046243 99.389507 0.384945 92.069881 -0.508661 2.829775 -0.570541 -4.166668 -5.372533 36.036833 1.283153 18.421589 3.390064 0.000000 -0.000000 0.000000 0.532842 -2.360112 -22.887403 0.224574 -6.185500 36.041480 7.067344 -8.539420 2.116270 0.000000 -0.000000 0.000000 0.091106 -4.278209 20.596461 2.542588 -3.462512 -7.038012 0.921570 -2.960647 2.223712 0.170983 -1.937473 -6.929689 4.033126 -3.377083 5.502261 -21.956972 1.451204 -3.620014 -32.311162 -6.544725 3.906769 10.064712 -60.225225 5.275277 12.131237 -9.338609 15.642171 21.415018 -3.734430 -4.827826 47.379388 -14.382613 17.474033 4.593531 59.260957 26.024940 -18.029973 5.779989 14.307248 
-0.764645 0.295979 1.059992 96.555389 0.039577 91.563559 -2.137950 0.365385 -5.662677 -4.980123 -3.432906 40.921459 4.677173 18.252329 -6.253027 0.000000 -0.000000 0.000000 1.257624 -1.749388 -18.460761 0.698729 -3.943896 33.172030 8.483181 -9.107023 3.285354 0.000000 -0.000000 0.000000 0.123211 -1.913054 20.893396 1.987752 -2.784163 -8.025260 0.747906 -2.260913 3.093855 0.188899 -3.048868 -6.786632 4.052902 -3.618574 5.041618 -21.837338 2.854732 -3.509229 -32.068722 -3.702085 3.901586 7.510169 -56.350215 7.242086 12.500612 -10.416572 17.167045 21.107831 -4.001668 -5.335862 47.727255 -14.797628 18.053087 4.059725 57.924578 25.017539 -17.925373 5.956683 14.310159 
-0.723078 0.290551 1.065848 93.213794 -0.146340 90.709001 -3.501563 -1.860647 -9.590074 -7.073824 -4.877279 37.803341 4.023583 14.548587 -13.882213 0.000000 -0.000000 0.000000 1.523797 -1.381506 -15.478201 0.915686 -2.390049 33.107618 10.629151 -8.677005 4.660278 0.000000 -0.000000 0.000000 -0.129289 0.116772 22.257543 1.551852 -2.046376 -8.551385 0.685897 -1.368503 3.808402 0.767098 -2.485494 -7.753856 3.806601 -4.625864 4.110255 -22.203097 4.608578 -4.202427 -32.360526 -0.785629 4.396602 7.686588 -52.761844 6.302157 11.679773 -11.230311 17.966287 21.895700 -4.100222 -6.024543 47.960056 -13.564054 18.792196 2.046388 55.425420 22.361672 -17.404314 5.965511 15.107902 
-0.681897 0.285204 1.064091 90.193831 -0.313921 90.124591 -4.382780 -4.526717 -12.342530 -7.641669 -8.168180 27.711225 1.731129 9.567926 -16.731563 0.000000 -0.000000 0.000000 1.155399 -1.109281 -14.338226 1.453397 -1.364275 36.024667 12.631496 -7.409831 5.137626 0.000000 -0.000000 0.000000 -0.680616 1.571570 22.978768 1.386759 -1.626568 -7.955803 0.667162 -0.674439 3.638214 1.240026 -1.051552 -8.104381 3.348967 -5.778585 3.097387 -22.604139 6.694136 -4.415408 -33.901223 2.158248 4.688897 9.688729 -48.839633 3.850073 10.110578 -11.514483 18.141760 22.655676 -3.721754 -6.161696 49.138024 -11.432157 19.352055 -0.786929 51.498276 18.811699 -17.187264 5.945292 15.949820 
-0.638785 0.280393 1.054067 87.520076 -0.445215 89.042215 -4.726308 -6.223351 -13.401193 -5.674397 -8.493541 15.447446 0.449402 10.160495 -16.587116 0.000000 -0.000000 0.000000 0.193603 -0.428093 -13.778290 2.535802 -1.097985 41.765733 14.045915 -5.619186 4.347137 0.000000 -0.000000 0.000000 -1.094483 2.233592 23.327684 1.116701 -1.176170 -7.027155 0.538295 -0.130441 3.367511 1.406713 0.332251 -7.878464 2.748153 -6.667566 3.009326 -22.591585 8.396472 -4.218078 -36.365963 5.519910 4.729757 11.262867 -45.043995 2.002911 9.603249 -11.663086 17.535162 23.113209 -2.921064 -5.991634 50.919882 -9.744203 19.585387 -2.906613 47.572746 15.892480 -17.576503 5.950028 16.164559 
-0.593425 0.276115 1.033794 85.210042 -0.419536 86.966434 -5.242222 -5.351432 -13.599175 -4.197267 -4.930618 8.125786 1.876906 15.319183 -17.291792 0.000000 -0.000000 0.000000 -0.824938 0.202603 -13.160673 4.223529 -0.760215 49.636928 14.187180 -3.780056 3.549620 0.000000 -0.000000 0.000000 -1.159106 2.159808 23.669390 0.810930 -0.656727 -6.382121 0.264098 0.343952 4.073846 1.281295 1.183525 -7.740463 1.988780 -6.736945 3.925257 -22.499690 9.823789 -4.063743 -39.074341 8.678789 4.231513 11.466994 -42.345036 1.354633 10.178009 -10.760462 15.819341 23.710141 -2.419587 -5.885264 52.155976 -8.118140 19.523688 -3.221633 44.786602 14.752666 -18.176014 5.890430 16.708696 
-0.545577 0.271166 1.002430 83.609480 0.063177 84.237505 -5.804287 -4.438351 -13.568858 -4.061009 -3.469072 8.857414 4.012658 17.800263 -18.304871 0.000000 -0.000000 0.000000 -1.139391 0.254152 -12.304104 6.057984 -0.051765 58.201277 14.213990 -2.298152 4.837033 0.000000 -0.000000 0.000000 -0.929674 1.817186 23.786059 0.989291 -0.451893 -5.627201 0.049441 0.640573 5.121418 1.105590 1.537293 -7.328899 1.080930 -5.928183 5.164215 -22.844495 11.236087 -4.290520 -41.555681 11.207733 3.423398 10.784229 -40.290864 1.295397 10.479871 -9.279295 14.489888 24.482239 -2.501980 -6.218764 52.234896 -6.952118 19.585856 -1.888243 43.412406 15.272819 -18.488475 6.050221 18.283258 
-0.496601 0.264965 0.963307 83.254884 0.232943 81.428642 -6.111165 -5.279037 -16.116649 -6.091234 -2.861557 21.279122 7.802881 19.105418 -17.895237 0.000000 -0.000000 0.000000 -2.049262 -0.615138 -10.824421 8.546418 0.480278 66.157554 14.064780 -0.939387 7.507116 0.000000 -0.000000 0.000000 -1.477196 2.067798 23.970551 1.873844 -1.094597 -5.711116 -0.123336 0.609484 6.564346 1.606719 1.904992 -7.389595 0.090247 -5.427080 7.608774 -23.049865 12.617326 -5.017404 -43.552050 12.411258 2.930333 9.056783 -37.496297 2.241052 11.180042 -7.759189 13.462117 25.327978 -3.495044 -7.156086 52.087157 -6.329469 20.234779 -0.494757 42.514774 16.344416 -18.702429 5.837819 19.867073 
-0.451275 0.260413 0.928950 84.695922 -0.658748 79.307962 -7.065192 -8.833600 -19.629755 -7.344324 0.480979 35.253007 11.516538 20.369352 -16.240153 0.000000 -0.000000 0.000000 -4.705171 -2.010867 -9.033558 10.495558 -0.096064 72.218858 14.084003 0.023259 10.786944 0.000000 -0.000000 0.000000 -2.088763 3.606537 24.160591 2.332337 -2.593379 -5.409841 -0.648556 -0.148583 7.325142 2.558390 1.771053 -8.139138 -0.560892 -5.711045 9.555189 -23.192975 12.366413 -5.932802 -45.124881 10.844986 3.296881 7.966112 -31.327433 2.894897 11.457434 -6.985351 13.315775 26.728852 -4.935023 -8.446992 53.234620 -6.133762 21.002142 -2.315881 40.354537 13.997286 -18.939534 5.257185 21.402610 
-0.409892 0.259459 0.911461 84.607926 -0.726004 77.614280 -8.457925 -8.588069 -18.386922 -6.656229 1.482541 41.687421 14.276904 21.507742 -20.041637 0.000000 -0.000000 0.000000 -5.661050 -2.342327 -7.756716 10.987328 -0.222442 76.187692 13.910043 -0.984535 15.641620 0.000000 -0.000000 0.000000 -0.248208 4.257895 24.506648 1.381290 -1.760016 -5.413634 -1.618372 -0.294263 7.417088 2.239393 0.177348 -7.716322 -0.546806 -5.723128 11.021211 -23.845392 10.023838 -5.671844 -47.128817 7.906907 2.691678 8.370788 -24.382163 2.776118 10.182133 -5.481331 15.134107 26.620918 -4.520918 -7.586176 56.348540 -6.592848 20.032263 -5.740554 36.445938 9.589705 -19.600439 4.041263 20.980013 
